<svg width="302" height="46" viewBox="0 0 302 46" fill="none" xmlns="http://www.w3.org/2000/svg">
<path fill-rule="evenodd" clip-rule="evenodd" d="M9.81427 22.8313C4.78421 35.4239 0.66929 45.7883 0.669678 45.8635C0.670066 45.9386 8.94897 46 19.0673 46H37.4641L28.2803 23.0323C23.2293 10.4 19.0659 0.0354104 19.0281 9.17251e-05C18.9905 -0.0354091 14.8441 10.2387 9.81427 22.8313ZM198.281 23.0459V46H201.868H205.454L205.504 32.2617L205.553 18.5235L213.295 27.4604C219.456 34.5729 221.079 36.3443 221.246 36.1375C221.361 35.9946 222.764 34.373 224.364 32.5337C225.964 30.6946 227.71 28.6865 228.243 28.0712C228.776 27.456 230.871 25.0507 232.897 22.7262L236.582 18.4998L236.631 32.2499L236.681 46H240.17H243.66V23.0221C243.66 3.63956 243.619 0.0858386 243.396 0.310677C243.161 0.548441 240.36 3.74916 237.734 6.78092C236.159 8.59875 230.601 14.9794 225.773 20.5123C223.282 23.366 221.148 25.7008 221.031 25.7008C220.913 25.7008 218.215 22.7106 215.036 19.0558C200.773 2.65846 198.625 0.209456 198.458 0.152473C198.352 0.11588 198.281 9.25633 198.281 23.0459ZM280.469 6.701C279.014 10.3421 275.584 18.892 272.848 25.7008C265.004 45.2164 264.757 45.8405 264.846 45.9234C264.892 45.9665 273.174 45.9809 283.25 45.9554L301.571 45.909L292.51 23.244C287.527 10.7781 283.375 0.466881 283.283 0.329975C283.17 0.162302 282.251 2.24265 280.469 6.701ZM51.0913 3.49137C51.0913 3.54198 54.4206 8.27068 58.4897 13.9996C62.5589 19.7283 65.921 24.541 65.9609 24.6941C66.0009 24.8474 62.6745 29.6833 58.5691 35.4408L51.1044 45.909L55.2079 45.9581C58.3317 45.9956 59.3661 45.9523 59.5408 45.7761C59.6669 45.649 62.1063 42.2679 64.9616 38.2626C67.817 34.2574 70.2099 30.9193 70.2789 30.8446C70.3481 30.77 71.9065 32.8181 73.742 35.396C75.5777 37.9739 78.0245 41.394 79.1795 42.9961L81.2796 45.909L85.4928 45.9581C88.8979 45.9978 89.676 45.9621 89.549 45.7719C89.4625 45.6426 86.0662 40.8671 82.0019 35.1597L74.612 24.7825L81.967 14.4094C86.0121 8.70415 89.406 3.89298 89.509 3.71766C89.6847 3.41873 89.4409 3.39906 85.5535 3.39906H81.4107L75.9757 10.991C72.9863 15.1666 70.4624 18.6038 70.3667 18.6291C70.2711 18.6544 67.7557 15.2381 64.777 11.0372L59.3611 3.39906H55.2262C52.952 3.39906 51.0913 3.44057 51.0913 3.49137ZM106.554 24.6953V46H110.046H113.537L113.488 24.745L113.439 3.49009L109.996 3.44039L106.554 3.39069V24.6953ZM152.127 3.60096C146.919 4.15496 142.199 6.33197 138.51 9.88278C135.453 12.8239 133.683 15.8407 132.592 19.9661C132.161 21.596 132.086 22.28 132.084 24.6085C132.083 26.1105 132.193 27.8718 132.328 28.5227C134.192 37.4886 141.433 44.1773 150.971 45.7415C153.639 46.1791 157.748 46.0158 160.369 45.3679C164.164 44.4296 167.876 42.4326 170.599 39.8633C172.563 38.011 173.636 36.6482 174.8 34.5305C179.928 25.1998 177.142 13.9568 168.126 7.59908C165.226 5.55442 160.939 3.99857 157.072 3.58749C155.097 3.37758 154.204 3.38013 152.127 3.60096Z" fill="#F4F4F4"/>
</svg>
