<svg width="25" height="16" viewBox="0 0 25 16" fill="none" xmlns="http://www.w3.org/2000/svg">
<path fill-rule="evenodd" clip-rule="evenodd" d="M20.1941 16H17.1172V10.3967C17.1172 8.85961 16.4656 8.00218 15.2972 8.00218C14.0256 8.00218 13.271 8.89563 13.271 10.3967V16H10.1941V5.59243H13.271V6.76288C13.271 6.76288 14.2364 5 16.4118 5C18.5879 5 20.1941 6.3818 20.1941 9.24148C20.1941 12.1004 20.1941 16 20.1941 16ZM5.6944 3C4.86561 3 4.19409 2.32819 4.19409 1.4997C4.19409 0.671815 4.86561 0 5.6944 0C6.52258 0 7.19409 0.671815 7.19409 1.4997C7.19471 2.32819 6.52258 3 5.6944 3ZM4.19409 16H7.19409V6H4.19409V16Z" fill="#F4F4F4"/>
</svg>
