<svg width="193" height="62" viewBox="0 0 193 62" fill="none" xmlns="http://www.w3.org/2000/svg">
<path fill-rule="evenodd" clip-rule="evenodd" d="M11.5983 0.275078C11.5494 0.447734 11.2396 1.34825 10.91 2.27631C10.5802 3.20437 9.61813 5.93792 8.77203 8.35087C7.92593 10.7638 6.64249 14.4237 5.92009 16.484C2.71574 25.623 1.92536 27.8772 1.08038 30.2868C0.585823 31.6974 0.142273 32.9882 0.0947143 33.1553L0.00839067 33.4591L11.7081 33.4626C19.1177 33.4649 23.4078 33.4185 23.4078 33.3363C23.4078 33.2649 22.9409 31.8826 22.37 30.2646C21.7991 28.6467 20.5985 25.2267 19.7021 22.6647C14.7532 8.5209 11.7748 0.056559 11.7292 0.00686344C11.7062 -0.0182544 11.6473 0.102422 11.5983 0.275078ZM126.099 16.8243L126.094 33.4974L128.382 33.4981L130.671 33.4988L130.674 23.4996L130.677 13.5005L134.462 18.4719C136.544 21.2061 138.756 24.1222 139.378 24.952C140 25.7818 140.54 26.4653 140.579 26.4711C140.617 26.4768 141.703 25.0997 142.991 23.4109C144.279 21.7221 145.39 20.2733 145.458 20.1914C145.527 20.1095 146.697 18.5829 148.059 16.7991L150.534 13.5556L150.563 23.5303L150.591 33.5048L152.817 33.5055L155.044 33.5062L155.049 16.8061C155.052 7.62105 155.007 0.163656 154.949 0.234246C154.891 0.304701 152.151 3.88527 148.86 8.19092C145.568 12.4966 142.434 16.5964 141.894 17.3016C141.355 18.0068 140.842 18.6666 140.756 18.7678C140.626 18.9198 140.012 18.1849 137.216 14.528C135.355 12.0949 133.499 9.65915 133.091 9.11496C130.354 5.46509 126.274 0.165188 126.197 0.158819C126.146 0.154619 126.102 7.65411 126.099 16.8243ZM179.316 2.77136C178.263 5.76882 176.899 9.62967 176.207 11.5743C175.789 12.7498 171.755 24.2023 169.348 31.0476C168.898 32.3289 168.529 33.4071 168.529 33.4437C168.529 33.4803 173.812 33.5119 180.269 33.5138L192.008 33.5174L191.516 32.1334C191.008 30.7076 188.874 24.6208 187.835 21.6357C187.512 20.7075 186.801 18.672 186.255 17.1126C185.709 15.5531 184.167 11.1481 182.829 7.32371C181.49 3.49929 180.357 0.326882 180.311 0.274082C180.265 0.221146 179.817 1.34492 179.316 2.77136ZM32.2858 1.97904C32.2561 2.03466 34.3685 5.57418 36.9798 9.84449C39.5911 14.1148 41.7071 17.7016 41.6821 17.8152C41.6569 17.9288 39.5105 21.4986 36.912 25.7479L32.1874 33.4741L34.8649 33.4386L37.5423 33.403L38.61 31.7009C39.1972 30.7648 40.7361 28.2616 42.0296 26.1384C43.3231 24.015 44.4341 22.2946 44.4984 22.3151C44.5629 22.3357 46.1488 24.8524 48.0227 27.9078L51.4299 33.4632L54.1265 33.4698L56.8231 33.4763L52.05 25.6908C49.4249 21.4087 47.2661 17.8641 47.2526 17.8138C47.2393 17.7637 49.3825 14.1951 52.0154 9.88375C54.6484 5.57251 56.7697 2.00903 56.7294 1.96514C56.6892 1.92112 55.5237 1.88485 54.1395 1.88443C51.8945 1.88375 51.6029 1.90917 51.44 2.11987C51.3397 2.24985 49.7667 4.78165 47.9445 7.74634C46.1224 10.711 44.5759 13.1539 44.5079 13.175C44.4398 13.1961 43.0486 11.0179 41.4164 8.33473C39.7841 5.65142 38.2122 3.10125 37.9233 2.66766L37.398 1.87934L34.8688 1.87858C33.4778 1.87815 32.3154 1.92343 32.2858 1.97904ZM67.5799 17.6809L67.5751 33.4796L69.8025 33.4803L72.0299 33.4809L72.0033 17.7191L71.9767 1.95735L69.7807 1.91983L67.5847 1.8823L67.5799 17.6809ZM97.0295 2.03908C91.3016 2.59072 86.4165 6.79058 84.5575 12.7615C84.0382 14.4295 83.8734 15.6448 83.8709 17.824C83.8689 19.5538 83.918 20.1389 84.1537 21.1992C84.7853 24.0399 85.9581 26.4459 87.7024 28.4789C89.6749 30.7781 91.8121 32.1909 94.5926 33.0342C95.9923 33.4585 98.879 33.6183 100.495 33.3609C101.653 33.1766 103.703 32.4823 104.705 31.9351C108.081 30.0915 110.834 26.6215 112.038 22.6927C113.024 19.4736 112.948 15.3798 111.844 12.2298C109.508 5.56365 103.481 1.41772 97.0295 2.03908ZM67.6308 53.7843C65.5206 54.7985 65.4263 59.6516 67.4955 60.7455C68.0698 61.0492 69.0662 61.1105 69.631 60.8771C70.5273 60.5068 71.1499 59.3173 71.246 57.7914C71.4076 55.2228 70.4118 53.5959 68.6824 53.6032C68.3082 53.6047 67.8349 53.6862 67.6308 53.7843ZM152.739 53.8126C152.53 53.912 152.18 54.2285 151.962 54.5159C150.934 55.8722 150.936 58.8959 151.966 60.1774C152.486 60.8232 152.924 61.0465 153.674 61.0467C154.652 61.047 155.32 60.5497 155.71 59.5309C155.976 58.8364 155.959 58.7646 155.473 58.5428C154.884 58.2741 154.82 58.2906 154.73 58.7337C154.491 59.9218 153.193 60.1739 152.635 59.1408C152.354 58.6217 152.234 56.867 152.427 56.0947C152.598 55.4073 153.174 54.8363 153.695 54.8365C154.102 54.8366 154.79 55.4669 154.789 55.8389C154.789 56.0934 154.813 56.0956 155.425 55.8957C155.688 55.8098 155.901 55.6731 155.9 55.5921C155.889 55.1535 155.286 54.203 154.843 53.9277C154.282 53.5796 153.339 53.528 152.739 53.8126ZM9.17298 57.2902L9.1719 60.8678L9.72863 60.8679L10.2854 60.8681L10.2858 59.5181L10.2862 58.168L11.1831 58.1678C11.8642 58.1676 12.1786 58.102 12.4894 57.8954C13.2579 57.3846 13.6024 55.9068 13.199 54.8523C12.8191 53.8592 12.4955 53.7135 10.6669 53.713L9.17407 53.7125L9.17298 57.2902ZM37.3807 57.2987L37.3796 60.8763L37.9363 60.8765L38.493 60.8767L38.4935 59.3916L38.494 57.9066L38.8707 57.9067C39.3731 57.9069 39.6782 58.2659 40.3912 59.696L40.9804 60.8774L41.6655 60.8777L42.3507 60.8779L41.8319 59.8314C41.5465 59.2558 41.1464 58.5531 40.9427 58.2697C40.739 57.9862 40.5919 57.7412 40.6158 57.7251C40.6395 57.7089 40.8213 57.6068 41.0195 57.4979C41.5756 57.1925 41.8339 56.616 41.8338 55.68C41.8337 54.7971 41.5836 54.2162 41.0697 53.9049C40.8774 53.7883 40.2278 53.7299 39.0829 53.7263L37.3818 53.7211L37.3807 57.2987ZM97.3841 56.5648C97.3834 58.9533 97.3532 59.423 97.1888 59.6024C96.7921 60.035 96.2149 59.7108 96.1265 59.0055C96.0809 58.6411 95.8159 58.5248 95.3324 58.6569C94.9576 58.7596 94.9373 59.2338 95.2728 60.0412C95.5486 60.7046 96.0386 61.0292 96.7642 61.0294C97.4898 61.0296 97.9799 60.7053 98.2561 60.0422C98.4631 59.5449 98.4917 59.1345 98.4948 56.6085L98.4984 53.7397L97.9417 53.7395L97.385 53.7393L97.3841 56.5648ZM122.993 57.3247L122.992 60.9024L125.103 60.903L127.213 60.9036L127.175 60.3299L127.137 59.7561L125.622 59.7177L124.106 59.6793L124.107 58.7384L124.107 57.7976L125.468 57.798L126.829 57.7984L126.829 57.1909L126.829 56.5834L125.468 56.583L124.107 56.5825L124.107 55.7768L124.108 54.971L125.561 54.9335L127.015 54.8959L127.053 54.3221L127.092 53.7484L125.043 53.7477L122.995 53.7471L122.993 57.3247ZM179.781 54.3719L179.781 54.9794L180.585 54.9796L181.389 54.9799L181.388 57.95L181.387 60.9201L181.944 60.9203L182.501 60.9204L182.502 57.9503L182.503 54.9802L183.307 54.9805L184.111 54.9807L184.111 54.3732L184.111 53.7657L181.946 53.765L179.781 53.7644L179.781 54.3719ZM69.236 54.969C70.5538 55.6248 70.4078 59.2692 69.0448 59.7409C68.2951 60.0002 67.4123 59.3335 67.2496 58.385C67.0949 57.4839 67.2417 55.9355 67.5205 55.526C67.9771 54.8554 68.6007 54.6529 69.236 54.969ZM11.9628 55.2052C12.0963 55.3662 12.1922 55.684 12.1921 55.9652C12.1919 56.6506 11.8121 56.9534 10.9533 56.9532L10.2865 56.953L10.2869 55.9404L10.2872 54.9279L11.0103 54.9281C11.5821 54.9283 11.7814 54.9863 11.9628 55.2052ZM40.5274 55.1492C40.6342 55.266 40.7216 55.5655 40.7215 55.8147C40.7213 56.5252 40.4723 56.6921 39.4134 56.6918L38.4943 56.6915L38.4946 55.814L38.4949 54.9365L39.414 54.9368C40.0844 54.937 40.3855 54.9944 40.5274 55.1492Z" fill="#F4F4F4"/>
</svg>
