<svg width="25" height="14" viewBox="0 0 25 14" fill="none" xmlns="http://www.w3.org/2000/svg">
<path fill-rule="evenodd" clip-rule="evenodd" d="M19.2633 5.60271H12.5361C12.5361 6.30231 12.5361 7.70152 12.5318 8.40113H16.43C16.2806 9.10074 15.751 10.0802 15.0027 10.5734C15.002 10.5727 15.0012 10.5776 14.9998 10.5769C14.0049 11.2338 12.6919 11.3829 11.717 11.187C10.1889 10.8833 8.97953 9.77516 8.4885 8.36755C8.49136 8.36545 8.4935 8.34586 8.49565 8.34446C8.18831 7.47135 8.18831 6.30231 8.49565 5.60271H8.49493C8.8909 4.31683 10.1367 3.14359 11.667 2.82247C12.8978 2.56152 14.2865 2.84416 15.3079 3.79982C15.4437 3.6669 17.1876 1.96405 17.3184 1.82553C13.8291 -1.33459 8.24191 -0.222915 6.15129 3.85789H6.15057C6.15057 3.85789 6.15129 3.85789 6.147 3.86558C5.11277 5.86996 5.15565 8.23183 6.15415 10.1404C6.15129 10.1425 6.14914 10.1438 6.147 10.1459C7.05186 11.902 8.69863 13.2487 10.6828 13.7615C12.7905 14.3142 15.473 13.9364 17.2698 12.3112C17.2706 12.3119 17.2713 12.3126 17.272 12.3133C18.7944 10.9421 19.7421 8.60612 19.2633 5.60271Z" fill="#F4F4F4"/>
</svg>
