<svg width="15" height="14" viewBox="0 0 15 14" fill="none" xmlns="http://www.w3.org/2000/svg">
<path fill-rule="evenodd" clip-rule="evenodd" d="M14.2442 5.60271H7.51705C7.51705 6.30231 7.51705 7.70152 7.51276 8.40113H11.411C11.2616 9.10074 10.732 10.0802 9.98363 10.5734C9.98291 10.5727 9.9822 10.5776 9.98077 10.5769C8.98585 11.2338 7.67286 11.3829 6.69795 11.187C5.16983 10.8833 3.96049 9.77516 3.46946 8.36755C3.47232 8.36545 3.47446 8.34586 3.4766 8.34446C3.16926 7.47135 3.16926 6.30231 3.4766 5.60271H3.47589C3.87186 4.31683 5.11765 3.14359 6.64792 2.82247C7.87871 2.56152 9.26746 2.84416 10.2888 3.79982C10.4246 3.6669 12.1686 1.96405 12.2994 1.82553C8.81002 -1.33459 3.22287 -0.222915 1.13224 3.85789H1.13153C1.13153 3.85789 1.13224 3.85789 1.12796 3.86558C0.0937223 5.86996 0.136607 8.23183 1.1351 10.1404C1.13224 10.1425 1.1301 10.1438 1.12796 10.1459C2.03282 11.902 3.67959 13.2487 5.66372 13.7615C7.7715 14.3142 10.4539 13.9364 12.2508 12.3112C12.2515 12.3119 12.2522 12.3126 12.2529 12.3133C13.7753 10.9421 14.7231 8.60612 14.2442 5.60271Z" fill="#4737FF"/>
</svg>
