<svg width="17" height="16" viewBox="0 0 17 16" fill="none" xmlns="http://www.w3.org/2000/svg">
<path fill-rule="evenodd" clip-rule="evenodd" d="M16.175 16H13.0981V10.3967C13.0981 8.85961 12.4466 8.00218 11.2781 8.00218C10.0066 8.00218 9.25197 8.89563 9.25197 10.3967V16H6.17505V5.59243H9.25197V6.76288C9.25197 6.76288 10.2174 5 12.3927 5C14.5689 5 16.175 6.3818 16.175 9.24148C16.175 12.1004 16.175 16 16.175 16ZM1.67536 3C0.846562 3 0.175049 2.32819 0.175049 1.4997C0.175049 0.671815 0.846562 0 1.67536 0C2.50354 0 3.17505 0.671815 3.17505 1.4997C3.17566 2.32819 2.50354 3 1.67536 3ZM0.175049 16H3.17505V6H0.175049V16Z" fill="#4737FF"/>
</svg>
