<svg width="75" height="13" viewBox="0 0 75 13" fill="none" xmlns="http://www.w3.org/2000/svg">
<path fill-rule="evenodd" clip-rule="evenodd" d="M2.2793 6.06222C1.02555 9.40584 -9.66659e-05 12.1578 6.83337e-09 12.1778C9.66795e-05 12.1977 2.06362 12.214 4.58562 12.214H9.17105L6.88199 6.11559C5.62302 2.76144 4.58528 0.00940228 4.57586 2.43551e-05C4.56648 -0.0094019 3.533 2.71861 2.2793 6.06222ZM49.2549 6.11921V12.214H50.1489H51.0428L51.0552 8.56622L51.0676 4.91841L52.9971 7.29136C54.5328 9.1799 54.9374 9.65024 54.9789 9.59533C55.0076 9.55738 55.3574 9.12682 55.7562 8.63844C56.155 8.15011 56.59 7.61692 56.7229 7.45354C56.8558 7.2902 57.3779 6.65153 57.883 6.03433L58.8014 4.91212L58.8137 8.56308L58.8262 12.214H59.6959H60.5657V6.11288C60.5657 0.966386 60.5554 0.0227921 60.4999 0.0824917C60.4413 0.145624 59.7431 0.995486 59.0885 1.80049C58.6961 2.28316 57.3107 3.97737 56.1072 5.44647C55.4865 6.2042 54.9546 6.82415 54.9252 6.82415C54.8958 6.82415 54.2235 6.03017 53.4311 5.05975C49.876 0.705882 49.3407 0.0556154 49.2991 0.040485C49.2726 0.0307687 49.2549 2.45776 49.2549 6.11921ZM69.7404 1.77927C69.3776 2.74606 68.5227 5.01624 67.8407 6.82415C65.8857 12.006 65.8242 12.1717 65.8462 12.1937C65.8577 12.2051 67.922 12.209 70.4335 12.2022L75 12.1899L72.7417 6.17181C71.4996 2.86184 70.4645 0.123967 70.4416 0.0876159C70.4136 0.0430949 70.1846 0.595473 69.7404 1.77927ZM12.5676 0.927037C12.5676 0.940475 13.3975 2.19605 14.4117 3.71721C15.426 5.23832 16.264 6.51618 16.2739 6.55683C16.2839 6.59754 15.4548 7.88159 14.4315 9.41033L12.5709 12.1899L13.5937 12.2029C14.3723 12.2129 14.6302 12.2014 14.6737 12.1546C14.7051 12.1208 15.3132 11.2231 16.0249 10.1596C16.7366 9.09612 17.333 8.20976 17.3502 8.18995C17.3674 8.17013 17.7559 8.71395 18.2134 9.39844C18.6709 10.0829 19.2808 10.991 19.5687 11.4164L20.0921 12.1899L21.1423 12.2029C21.991 12.2135 22.1849 12.204 22.1533 12.1535C22.1317 12.1191 21.2852 10.8511 20.2722 9.33569L18.4302 6.58033L20.2635 3.82602C21.2717 2.31115 22.1177 1.03367 22.1433 0.987123C22.1871 0.907749 22.1264 0.902528 21.1574 0.902528H20.1248L18.7701 2.91835C18.025 4.02707 17.3959 4.93972 17.3721 4.94644C17.3483 4.95316 16.7213 4.04606 15.9788 2.93062L14.6289 0.902528H13.5983C13.0314 0.902528 12.5676 0.91355 12.5676 0.927037ZM26.3918 6.55717V12.214H27.2621H28.1323L28.1201 6.57037L28.1078 0.926698L27.2498 0.913502L26.3918 0.900304V6.55717ZM37.7509 0.956137C36.4528 1.10323 35.2765 1.68128 34.3568 2.6241C33.595 3.40503 33.1537 4.20607 32.8817 5.30145C32.7743 5.73424 32.7556 5.91585 32.7552 6.53411C32.7549 6.93292 32.7823 7.4006 32.816 7.57342C33.2805 9.95406 35.0855 11.7301 37.4628 12.1454C38.1278 12.2616 39.152 12.2182 39.8052 12.0462C40.7513 11.7971 41.6763 11.2668 42.3551 10.5846C42.8445 10.0928 43.1121 9.73092 43.4022 9.16863C44.6805 6.69112 43.986 3.70585 41.7386 2.01773C41.0159 1.47482 39.9473 1.06171 38.9835 0.95256C38.4912 0.896824 38.2686 0.897501 37.7509 0.956137Z" fill="#4737FF"/>
</svg>
