<svg width="17" height="100" viewBox="0 0 17 100" fill="none" xmlns="http://www.w3.org/2000/svg">
<path fill-rule="evenodd" clip-rule="evenodd" d="M8.08296 96.9609C12.5411 98.6326 16.2104 100 16.237 100C16.2637 99.9999 16.2854 97.2485 16.2854 93.8858V87.7719L8.15412 90.824C3.68191 92.5026 0.0125364 93.8863 3.24734e-05 93.8989C-0.0125359 93.9114 3.62481 95.2893 8.08296 96.9609ZM8.15895 34.3267H16.2854V33.1348V31.943L11.4216 31.9264L6.55787 31.9099L9.72181 29.3371C12.2399 27.2896 12.867 26.7501 12.7938 26.6948C12.7432 26.6565 12.1691 26.1901 11.5179 25.6584C10.8668 25.1267 10.1559 24.5467 9.93805 24.3695C9.72026 24.1922 8.86871 23.4962 8.04577 22.8227L6.54949 21.5982L11.4174 21.5817L16.2854 21.5651V20.4055V19.2458H8.15051C1.28851 19.2458 0.0303895 19.2595 0.109989 19.3335C0.194165 19.4116 1.32731 20.3425 2.40065 21.2153C3.04421 21.7385 5.30317 23.5857 7.26196 25.1903C8.27226 26.018 9.09887 26.7272 9.09887 26.7664C9.09887 26.8055 8.04023 27.702 6.74633 28.7585C0.941176 33.4987 0.0741539 34.2124 0.05398 34.2678C0.041025 34.3032 3.27702 34.3267 8.15895 34.3267ZM2.37236 7.01283C3.66142 7.49651 6.68833 8.63635 9.09887 9.54572C16.008 12.1523 16.2289 12.2344 16.2583 12.2051C16.2735 12.1898 16.2786 9.43739 16.2696 6.08865L16.2532 0L8.22908 3.0111C3.81578 4.66724 0.16529 6.04727 0.116821 6.07782C0.0574599 6.11526 0.793965 6.42055 2.37236 7.01283ZM1.23605 83.2431C1.25397 83.2431 2.92807 82.1367 4.95628 80.7844C6.98442 79.432 8.68824 78.3147 8.74244 78.3014C8.79671 78.2881 10.5088 79.3936 12.5471 80.758L16.2532 83.2388L16.2706 81.875C16.2838 80.8369 16.2685 80.4931 16.2061 80.4351C16.1611 80.3932 14.9641 79.5825 13.5461 78.6335C12.1282 77.6846 10.9464 76.8894 10.9199 76.8664C10.8935 76.8434 11.6186 76.3255 12.5313 75.7155C13.4439 75.1054 14.6547 74.2923 15.2219 73.9084L16.2532 73.2105L16.2706 71.8103C16.2846 70.6787 16.272 70.4201 16.2046 70.4623C16.1589 70.491 14.4682 71.6197 12.4476 72.9704L8.77377 75.4264L5.10136 72.982C3.08153 71.6377 1.37823 70.5098 1.31616 70.4756C1.21033 70.4172 1.20337 70.4982 1.20337 71.7901L1.20337 73.1669L3.89113 74.9732C5.36942 75.9666 6.5863 76.8054 6.59526 76.8372C6.60422 76.869 5.39475 77.705 3.9075 78.6949L1.20337 80.4948V81.869C1.20337 82.6248 1.21807 83.2431 1.23605 83.2431ZM8.7429 64.8109H16.2854V63.6505V62.4902L8.76049 62.5066L1.2356 62.523L1.218 63.6669L1.20041 64.8109H8.7429ZM1.27485 49.6655C1.47098 51.3962 2.24171 52.9647 3.4988 54.1909C4.54004 55.2066 5.60809 55.795 7.0686 56.1577C7.64565 56.301 7.8878 56.3258 8.71215 56.3264C9.24389 56.3268 9.86747 56.2903 10.0979 56.2453C13.2721 55.626 15.6401 53.2193 16.1939 50.0497C16.3488 49.163 16.291 47.7973 16.0616 46.9264C15.7294 45.665 15.0224 44.4316 14.1128 43.5265C13.4571 42.874 12.9746 42.5172 12.2248 42.1304C8.9215 40.426 4.94113 41.352 2.6903 44.3485C1.96643 45.3121 1.41562 46.7369 1.27008 48.022C1.19577 48.6784 1.19667 48.9752 1.27485 49.6655Z" fill="white"/>
</svg>
