<svg width="25" height="25" viewBox="0 0 25 25" fill="none" xmlns="http://www.w3.org/2000/svg">
<path fill-rule="evenodd" clip-rule="evenodd" d="M24.0364 0.112333C24.227 0.112816 24.4132 0.1696 24.5716 0.275537C24.73 0.381475 24.8534 0.531832 24.9264 0.707678C24.9994 0.883524 25.0186 1.077 24.9817 1.26375C24.9448 1.4505 24.8534 1.62218 24.7191 1.75717L1.64981 24.7505C1.46594 24.9166 1.22516 25.0057 0.977303 24.9994C0.72945 24.9932 0.4935 24.892 0.318285 24.7168C0.14307 24.5416 0.0420055 24.3059 0.0360107 24.0584C0.030014 23.8109 0.119545 23.5705 0.286072 23.3871L23.3522 0.395332C23.4419 0.305399 23.5485 0.234091 23.666 0.185518C23.7834 0.136946 23.9093 0.112074 24.0364 0.112333Z" fill="#F4F4F4"/>
<path fill-rule="evenodd" clip-rule="evenodd" d="M16.2015 -3.43323e-05C16.3301 -0.00030899 16.4575 0.0251465 16.5761 0.0748253C16.6947 0.124506 16.8021 0.197405 16.892 0.289219C16.9828 0.379698 17.0549 0.487173 17.104 0.60549C17.1532 0.723806 17.1785 0.850643 17.1785 0.978739C17.1785 1.10683 17.1532 1.23367 17.104 1.35198C17.0549 1.4703 16.9828 1.57778 16.892 1.66826L1.66858 16.8705C1.57832 16.9615 1.4709 17.0337 1.35252 17.083C1.23414 17.1323 1.10715 17.1577 0.978884 17.1577C0.85062 17.1577 0.723631 17.1323 0.605249 17.083C0.48687 17.0337 0.379444 16.9615 0.289185 16.8705C0.197584 16.7803 0.124846 16.6728 0.0751972 16.5543C0.0255489 16.4358 -1.71661e-05 16.3087 -1.71661e-05 16.1802C-1.71661e-05 16.0517 0.0255489 15.9246 0.0751972 15.8061C0.124846 15.6876 0.197584 15.5801 0.289185 15.4899L15.5126 0.289219C15.6024 0.197592 15.7095 0.124802 15.8278 0.0751286C15.9461 0.0254555 16.0732 -9.91821e-05 16.2015 -3.43323e-05Z" fill="#F4F4F4"/>
<path fill-rule="evenodd" clip-rule="evenodd" d="M8.40279 0.0389671C8.58899 0.0407953 8.77054 0.0972958 8.92481 0.201432C9.07909 0.305568 9.19927 0.452733 9.27038 0.624593C9.34149 0.796453 9.36038 0.98541 9.32471 1.16792C9.28905 1.35043 9.20039 1.51842 9.06978 1.65097L1.62951 9.08088C1.54191 9.16891 1.43774 9.23876 1.323 9.28643C1.20826 9.3341 1.08522 9.35864 0.960945 9.35864C0.836673 9.35864 0.713627 9.3341 0.598888 9.28643C0.48415 9.23876 0.379985 9.16891 0.292384 9.08088C0.11636 8.90345 0.0176077 8.6638 0.0176077 8.41404C0.0176077 8.16428 0.11636 7.92462 0.292384 7.74719L7.73423 0.317276C7.82168 0.229012 7.9258 0.158963 8.04057 0.111189C8.15533 0.0634146 8.27845 0.038867 8.40279 0.0389671Z" fill="#F4F4F4"/>
</svg>
