<svg width="1136" height="625" viewBox="0 0 1136 625" fill="none" xmlns="http://www.w3.org/2000/svg">
<path d="M0 25.862L0 511.084H396.629V625L1135.8 625V285.714H817.297V296.798H863.37V344.212H809.284V296.798H817.297V254.31H634.006V265.394H657.043V350.369H680.079V344.212H667.059V265.394H735.167V292.488H799.268V344.212H739.173V350.369H799.268V354.68H809.284V350.369H873.386V296.798H1043.66V348.522H1117.77V534.483H998.585V556.65H1103.75V612.685L831.319 612.685V556.65H933.481V534.483H817.297V474.138H809.284V397.167H799.268V421.182H654.038V427.34H799.268V599.138H438.696V427.34H576.916V421.182H438.696V327.586L357.567 327.586V333.744L428.68 333.744V397.783H420.668V485.222H42.0668L42.0668 333.744H280.445V327.586H168.267V319.581H158.251V327.586H42.0668V271.552H158.251V282.02H168.267V271.552H178.283V265.394H42.0668L42.0668 25.862H267.424L267.424 265.394H256.407V271.552H342.544V265.394H277.44L277.44 169.951L447.711 169.951L447.711 254.31L416.661 254.31V265.394H401.637V271.552L430.684 271.552V265.394H560.89V254.31H534.849V169.951H539.857V158.867L285.453 158.867V0H0L0 25.862ZM745.183 286.33V265.394H799.268V286.33H745.183ZM1053.67 342.365V296.798H1117.77V342.365H1053.67ZM929.475 554.187H868.378V548.03H929.475V554.187ZM929.475 546.798H868.378V544.335H929.475V546.798ZM929.475 536.946V543.103H868.378V536.946H929.475ZM544.865 622.537V614.532H696.105V622.537H544.865ZM1103.75 615.148V622.537L831.319 622.537V615.148L1103.75 615.148ZM696.105 613.3H544.865V610.837H696.105V613.3ZM696.105 601.601V609.606H544.865V601.601H696.105ZM302.48 508.621H162.258V500.616H302.48V508.621ZM302.48 499.384H162.258V496.921H302.48V499.384ZM302.48 487.685V495.69H162.258V487.685H302.48ZM516.82 254.31H465.739V243.227H516.82V254.31ZM516.82 232.143H457.726L457.726 190.887H516.82V232.143ZM516.82 169.951V184.729H457.726V169.951H516.82ZM220.35 23.399H99.1574V15.394H220.35V23.399ZM220.35 14.1625H99.1574V11.6995H220.35V14.1625ZM220.35 2.46301V10.4679H99.1574V2.46301H220.35Z" fill="#4737FF" fill-opacity="0.05"/>
</svg>
