<svg width="211" height="61" viewBox="0 0 211 61" fill="none" xmlns="http://www.w3.org/2000/svg">
<path fill-rule="evenodd" clip-rule="evenodd" d="M12.7258 0.27156C12.6721 0.444231 12.3319 1.34485 11.97 2.273C11.6079 3.20116 10.5515 5.935 9.6225 8.34821C8.69347 10.7614 7.28424 14.4217 6.49104 16.4822C2.97265 25.6222 2.10481 27.8766 1.17701 30.2865C0.633986 31.6973 0.146974 32.9882 0.0947647 33.1553L0 33.4591H12.8575C21.0004 33.4591 25.715 33.4114 25.715 33.3292C25.715 33.2578 25.2013 31.8756 24.5734 30.2578C23.9454 28.6401 22.625 25.2204 21.639 22.6587C16.1957 8.51643 12.9197 0.0529877 12.8695 0.00330604C12.8442 -0.0218048 12.7795 0.0988892 12.7258 0.27156ZM138.562 16.786V33.4591H141.078H143.593V23.4599V13.4608L147.754 18.431C150.042 21.1646 152.474 24.08 153.158 24.9096C153.842 25.7392 154.436 26.4226 154.479 26.4284C154.521 26.4341 155.714 25.0566 157.129 23.3675C158.544 21.6783 159.764 20.2292 159.839 20.1472C159.915 20.0653 161.2 18.5384 162.696 16.7541L165.415 13.5098L165.45 23.4845L165.484 33.4591H167.931H170.377V16.759C170.377 7.57396 170.326 0.116575 170.262 0.187182C170.199 0.257655 167.189 3.83906 163.573 8.1457C159.957 12.4523 156.514 16.5531 155.921 17.2585C155.329 17.9639 154.766 18.6238 154.671 18.7251C154.528 18.8771 153.853 18.1424 150.779 14.4863C148.733 12.0538 146.693 9.6186 146.244 9.07454C143.235 5.4255 138.75 0.126835 138.664 0.12049C138.608 0.116304 138.562 7.61581 138.562 16.786ZM197.041 2.7169C195.885 5.71467 194.388 9.57594 193.628 11.5208C193.168 12.6964 188.739 24.1501 186.096 30.9962C185.602 32.2776 185.197 33.3559 185.197 33.3925C185.197 33.4291 191.003 33.4591 198.099 33.4591H211L210.458 32.0753C209.9 30.6496 207.552 24.5635 206.41 21.5787C206.055 20.6505 205.273 18.6153 204.672 17.056C204.071 15.4967 202.375 11.0922 200.903 7.26817C199.431 3.44417 198.185 0.2721 198.134 0.219313C198.084 0.166391 197.592 1.2903 197.041 2.7169ZM35.461 1.96924C35.4284 2.02486 37.751 5.56374 40.6221 9.83326C43.4933 14.1028 45.8199 17.6889 45.7924 17.8026C45.7648 17.9161 43.4071 21.4866 40.5529 25.7367L35.3634 33.4643L38.3059 33.428L41.2482 33.3916L42.421 31.6892C43.066 30.7529 44.7563 28.2492 46.1771 26.1256C47.5979 24.0019 48.8183 22.2811 48.889 22.3016C48.9598 22.3221 50.7035 24.8383 52.7638 27.8932L56.5101 33.4476L59.4735 33.4534L62.437 33.4591L57.189 25.675C54.3026 21.3937 51.929 17.8497 51.9142 17.7995C51.8995 17.7494 54.2537 14.1801 57.1457 9.86796C60.0377 5.55591 62.3678 1.99179 62.3235 1.94791C62.2793 1.9039 60.9984 1.86799 59.4773 1.86799C57.0102 1.86799 56.6897 1.8935 56.5108 2.10425C56.4005 2.23426 54.6727 4.76654 52.6712 7.73178C50.6698 10.697 48.9711 13.1403 48.8963 13.1615C48.8215 13.1826 47.292 11.0048 45.4973 8.32215C43.7026 5.63934 41.9743 3.08965 41.6566 2.65615L41.0791 1.86799H38.2996C36.7709 1.86799 35.4935 1.91362 35.461 1.96924ZM74.253 17.6604V33.4591H76.7008H79.1487L79.1141 17.6973L79.0796 1.93549L76.6663 1.89863L74.253 1.86178V17.6604ZM106.612 2.00961C100.317 2.56299 94.9501 6.76434 92.909 12.7359C92.3389 14.404 92.1582 15.6193 92.1562 17.7985C92.1546 19.5283 92.2087 20.1135 92.4681 21.1736C93.1631 24.0141 94.4528 26.4198 96.3704 28.4523C98.5389 30.7509 100.888 32.163 103.944 33.0055C105.482 33.4294 108.655 33.5883 110.431 33.3304C111.703 33.1457 113.955 32.4509 115.056 31.9033C118.766 30.0587 121.79 26.5879 123.112 22.6587C124.194 19.4392 124.11 15.3455 122.896 12.1958C120.326 5.53039 113.701 1.38629 106.612 2.00961ZM74.321 53.7638C72.0023 54.7786 71.9003 59.6317 74.1747 60.725C74.8058 61.0285 75.9008 61.0895 76.5215 60.8559C77.5064 60.4854 78.1902 59.2957 78.2952 57.7697C78.472 55.2011 77.3771 53.5745 75.4766 53.5823C75.0654 53.5839 74.5453 53.6656 74.321 53.7638ZM167.851 53.7662C167.621 53.8657 167.237 54.1823 166.998 54.4697C165.868 55.8264 165.871 58.8501 167.004 60.1312C167.575 60.7768 168.057 61 168.882 61C169.956 61 170.69 60.5025 171.119 59.4836C171.411 58.789 171.392 58.7172 170.858 58.4955C170.211 58.227 170.139 58.2436 170.042 58.6867C169.779 59.8749 168.353 60.1273 167.738 59.0944C167.43 58.5755 167.298 56.8208 167.509 56.0484C167.697 55.361 168.329 54.7898 168.903 54.7898C169.349 54.7898 170.105 55.4199 170.105 55.7919C170.105 56.0464 170.131 56.0486 170.803 55.8485C171.092 55.7625 171.327 55.6257 171.325 55.5447C171.314 55.1061 170.65 54.1558 170.163 53.8807C169.547 53.5328 168.51 53.4815 167.851 53.7662ZM10.0795 57.2874V60.865H10.6913H11.3031V59.5149V58.1649L12.2888 58.1644C13.0373 58.164 13.3828 58.0984 13.7243 57.8917C14.5686 57.3805 14.9467 55.9026 14.5031 54.8482C14.0853 53.8553 13.7296 53.7098 11.72 53.7098H10.0795V57.2874ZM41.0785 57.2874V60.865H41.6904H42.3022V59.3799V57.8949H42.7162C43.2683 57.8949 43.6037 58.2539 44.3878 59.6837L45.0357 60.865H45.7886H46.5416L45.9711 59.8187C45.6573 59.2432 45.2173 58.5406 44.9934 58.2573C44.7695 57.9739 44.6077 57.7288 44.6339 57.7128C44.66 57.6966 44.8597 57.5944 45.0776 57.4854C45.6886 57.1799 45.9722 56.6033 45.9718 55.6673C45.9714 54.7844 45.6963 54.2036 45.1315 53.8924C44.9201 53.7759 44.2062 53.7177 42.948 53.7145L41.0785 53.7098V57.2874ZM107.02 56.5353C107.02 58.9238 106.987 59.3935 106.806 59.5729C106.37 60.0056 105.736 59.6815 105.638 58.9763C105.588 58.6119 105.297 58.4957 104.765 58.628C104.354 58.7307 104.331 59.205 104.7 60.0123C105.004 60.6756 105.542 61 106.34 61C107.137 61 107.676 60.6756 107.979 60.0123C108.206 59.515 108.238 59.1045 108.24 56.5786L108.243 53.7098H107.631H107.02V56.5353ZM135.163 57.2874V60.865H137.483H139.802L139.76 60.2912L139.718 59.7175L138.053 59.6795L136.387 59.6416V58.7007V57.7599H137.883H139.378V57.1524V56.5448H137.883H136.387V55.7391V54.9333L137.985 54.8954L139.582 54.8573L139.624 54.2835L139.666 53.7098H137.415H135.163V57.2874ZM197.57 54.3173V54.9248H198.453H199.337V57.8949V60.865H199.949H200.561V57.8949V54.9248H201.444H202.328V54.3173V53.7098H199.949H197.57V54.3173ZM76.0855 54.948C77.5339 55.6033 77.3746 59.2478 75.8769 59.7199C75.0531 59.9795 74.0828 59.313 73.9036 58.3646C73.7334 57.4636 73.8941 55.9151 74.2004 55.5054C74.7019 54.8347 75.3872 54.6321 76.0855 54.948ZM13.1447 55.2016C13.2914 55.3625 13.3969 55.6803 13.3969 55.9615C13.3969 56.6469 12.9796 56.9499 12.0358 56.9499H11.3031V55.9373V54.9248H12.0978C12.7262 54.9248 12.9452 54.9827 13.1447 55.2016ZM44.5359 55.1369C44.6534 55.2537 44.7495 55.5531 44.7495 55.8023C44.7495 56.5129 44.4759 56.6799 43.3122 56.6799H42.3022V55.8023V54.9248H43.3122C44.049 54.9248 44.3799 54.9822 44.5359 55.1369Z" fill="#F4F4F4"/>
</svg>
