<svg width="17" height="14" viewBox="0 0 17 14" fill="none" xmlns="http://www.w3.org/2000/svg">
<path fill-rule="evenodd" clip-rule="evenodd" d="M6.01296 14C12.0506 14 15.353 8.6132 15.353 3.94228C15.353 3.78894 15.353 3.63646 15.3434 3.48484C15.9858 2.98518 16.5402 2.36492 16.981 1.65506C16.3826 1.94107 15.7466 2.12887 15.0962 2.21158C15.781 1.76964 16.2938 1.07529 16.5394 0.256027C15.8946 0.667812 15.1898 0.958129 14.4546 1.11406C13.2114 -0.309101 11.1322 -0.378019 9.80976 0.960714C8.95776 1.82391 8.59536 3.11096 8.86016 4.33856C6.22096 4.19555 3.76176 2.85337 2.09456 0.645414C1.22336 2.26068 1.66896 4.3265 3.11136 5.36371C2.58896 5.34734 2.07776 5.19572 1.62096 4.92178V4.96657C1.62176 6.64903 2.72336 8.09803 4.25456 8.43143C3.77136 8.57357 3.26416 8.59424 2.77296 8.49173C3.20256 9.93212 4.43536 10.9185 5.83936 10.9469C4.67696 11.9307 3.24096 12.4649 1.76256 12.4631C1.50176 12.4623 1.24096 12.4459 0.980957 12.4123C2.48256 13.4495 4.22896 14 6.01296 13.9974" fill="#4737FF"/>
</svg>
